# xmcd CD database file generated by Grip 2.6
# 
# Track frame offsets:
#       165
#       14285
#       29515
#       44066
#       59387
#       71664
#       86986
#       99557
#       116477
#       130240
#       142294
#       153520
#       177367
#       191325
#       213528
# 
# Disc length: 2953 seconds
# 
# Revision: 3
# Processed by: cddbd v1.4b41PL1 Copyright (c) Steve Scherf et al.
# Submitted via: Grip 2.6
# 
DISCID=e50b870f
DTITLE=Grass - Guns and Money
DYEAR=1900
DGENRE=
TTITLE0=Mighty Fine Boy
TTITLE1=Ready for the Times
TTITLE2=Bannock
TTITLE3=Green Grass Rag
TTITLE4=Fox on the Run
TTITLE5=The Tenessee Stud
TTITLE6=Southbound
TTITLE7=Angel Band
TTITLE8=To Love and Live Together
TTITLE9=Cripple Creek
TTITLE10=Darling Corey
TTITLE11=The Fields Have Turned Brown
TTITLE12=Sheep-Sheep
TTITLE13=Guns and Money
TTITLE14=Clinch Mountain Backstep
EXTD=
EXTT0=
EXTT1=
EXTT2=
EXTT3=
EXTT4=
EXTT5=
EXTT6=
EXTT7=
EXTT8=
EXTT9=
EXTT10=
EXTT11=
EXTT12=
EXTT13=
EXTT14=
PLAYORDER=
